<svg width="33" height="33" viewBox="0 0 33 33" fill="none" xmlns="http://www.w3.org/2000/svg">
<path d="M23.4803 25.3497H12.147C10.4161 25.3492 8.7195 24.8675 7.24668 23.9583C5.77386 23.0491 4.58288 21.7482 3.80681 20.2011C3.03075 18.654 2.70017 16.9216 2.85204 15.1974C3.0039 13.4732 3.63222 11.8253 4.66678 10.4376C5.70134 9.04999 7.10138 7.97738 8.71045 7.33963C10.3195 6.70189 12.0742 6.52415 13.7785 6.82627C15.4828 7.12839 17.0695 7.89847 18.3613 9.05046C19.6531 10.2024 20.5991 11.691 21.0937 13.3497H23.4803C25.0716 13.3497 26.5977 13.9818 27.723 15.107C28.8482 16.2322 29.4803 17.7584 29.4803 19.3497C29.4803 20.941 28.8482 22.4671 27.723 23.5923C26.5977 24.7175 25.0716 25.3497 23.4803 25.3497Z" stroke="#030213" stroke-width="2.66667" stroke-linecap="round" stroke-linejoin="round"/>
</svg>
